<svg width="193" height="178" viewBox="0 0 193 178" fill="none" xmlns="http://www.w3.org/2000/svg">
<path fill-rule="evenodd" clip-rule="evenodd" d="M127 157C127 167.493 118.493 176 108 176H2.38498e-08L0 178H108C119.598 178 129 168.598 129 157V21C129 9.40202 119.598 1.38305e-07 108 0L2.12263e-06 1.39709e-05L2.09878e-06 2.00001L108 2C118.493 2 127 10.5066 127 21V157Z" fill="#6D3FD2"/>
<path fill-rule="evenodd" clip-rule="evenodd" d="M190.852 89.5001H127.619V91.5001H190.852V89.5001Z" fill="#6D3FD2"/>
<path fill-rule="evenodd" clip-rule="evenodd" d="M179.726 80.3472C180.072 79.9171 180.702 79.8491 181.132 80.1954L192.629 89.4519C192.868 89.6446 193.006 89.9366 193.002 90.2439C192.998 90.5512 192.853 90.8395 192.608 91.0259L181.111 99.7951C180.672 100.13 180.045 100.046 179.71 99.6065C179.375 99.1673 179.459 98.5398 179.898 98.2049L190.381 90.2095L179.878 81.7533C179.448 81.4069 179.38 80.7774 179.726 80.3472Z" fill="#6D3FD2"/>
</svg>
