<svg width="118" height="179" viewBox="0 0 118 179" fill="none" xmlns="http://www.w3.org/2000/svg">
<path fill-rule="evenodd" clip-rule="evenodd" d="M62.5518 157.882C62.5518 168.434 53.9762 176.989 43.3976 176.989H0V179H43.3976C55.0897 179 64.568 169.545 64.568 157.882V21.118C64.568 9.45484 55.0897 1.39082e-07 43.3976 0L2.14577e-06 1.40494e-05V2.01125L43.3976 2.01124C53.9762 2.01124 62.5518 10.5656 62.5518 21.118V157.882Z" fill="#6D3FD2"/>
<path fill-rule="evenodd" clip-rule="evenodd" d="M115.833 90.0029H63.1755V92.0141H115.833V90.0029Z" fill="#6D3FD2"/>
<path fill-rule="evenodd" clip-rule="evenodd" d="M104.616 80.7986C104.966 80.366 105.6 80.2977 106.034 80.646L117.624 89.9544C117.865 90.1482 118.004 90.4419 118 90.7509C117.996 91.0599 117.85 91.3499 117.603 91.5373L106.013 100.356C105.57 100.693 104.938 100.608 104.6 100.166C104.262 99.7245 104.348 99.0934 104.79 98.7566L115.358 90.7163L104.769 82.2126C104.336 81.8643 104.267 81.2312 104.616 80.7986Z" fill="#6D3FD2"/>
</svg>
