<svg width="140" height="345" viewBox="0 0 140 345" fill="none" xmlns="http://www.w3.org/2000/svg">
<path fill-rule="evenodd" clip-rule="evenodd" d="M14.5 342C20.8513 342 26 336.851 26 330.5C26 324.149 20.8513 319 14.5 319C8.14873 319 3 324.149 3 330.5C3 336.851 8.14873 342 14.5 342ZM14.5 345C22.5081 345 29 338.508 29 330.5C29 322.492 22.5081 316 14.5 316C6.49187 316 0 322.492 0 330.5C0 338.508 6.49187 345 14.5 345Z" fill="#1C1C1E"/>
<path fill-rule="evenodd" clip-rule="evenodd" d="M125.5 26C131.851 26 137 20.8513 137 14.5C137 8.14873 131.851 3 125.5 3C119.149 3 114 8.14873 114 14.5C114 20.8513 119.149 26 125.5 26ZM125.5 29C133.508 29 140 22.5081 140 14.5C140 6.49187 133.508 0 125.5 0C117.492 0 111 6.49187 111 14.5C111 22.5081 117.492 29 125.5 29Z" fill="#1C1C1E"/>
<path fill-rule="evenodd" clip-rule="evenodd" d="M123.5 149.668V28H126.5V149.668C126.5 163.471 115.517 174.768 101.719 175.158L37.3652 177.341C25.1909 177.685 15.5 187.653 15.5 199.832V317H12.5V199.832C12.5 186.029 23.483 174.732 37.2805 174.342L101.635 172.159C113.809 171.815 123.5 161.847 123.5 149.668Z" fill="#1C1C1E"/>
</svg>
