<svg width="625" height="345" viewBox="0 0 625 345" fill="none" xmlns="http://www.w3.org/2000/svg">
<path fill-rule="evenodd" clip-rule="evenodd" d="M14.5 342C20.8513 342 26 336.851 26 330.5C26 324.149 20.8513 319 14.5 319C8.14873 319 3 324.149 3 330.5C3 336.851 8.14873 342 14.5 342ZM14.5 345C22.5081 345 29 338.508 29 330.5C29 322.492 22.5081 316 14.5 316C6.49187 316 0 322.492 0 330.5C0 338.508 6.49187 345 14.5 345Z" fill="#1C1C1E"/>
<path fill-rule="evenodd" clip-rule="evenodd" d="M610.5 26C616.851 26 622 20.8513 622 14.5C622 8.14873 616.851 3 610.5 3C604.149 3 599 8.14873 599 14.5C599 20.8513 604.149 26 610.5 26ZM610.5 29C618.508 29 625 22.5081 625 14.5C625 6.49187 618.508 0 610.5 0C602.492 0 596 6.49187 596 14.5C596 22.5081 602.492 29 610.5 29Z" fill="#1C1C1E"/>
<path fill-rule="evenodd" clip-rule="evenodd" d="M608.5 182.668V28H611.5V182.668C611.5 196.471 600.517 207.768 586.719 208.158L37.3652 210.341C25.1909 210.685 15.5 220.653 15.5 232.832V317H12.5V232.832C12.5 219.029 23.483 207.732 37.2805 207.342L586.635 205.159C598.809 204.815 608.5 194.847 608.5 182.668Z" fill="#1C1C1E"/>
</svg>
