<svg width="205" height="388" viewBox="0 0 205 388" fill="none" xmlns="http://www.w3.org/2000/svg">
<path fill-rule="evenodd" clip-rule="evenodd" d="M14.5 26C20.8513 26 26 20.8513 26 14.5C26 8.14873 20.8513 3 14.5 3C8.14873 3 3 8.14873 3 14.5C3 20.8513 8.14873 26 14.5 26ZM14.5 29C22.5081 29 29 22.5081 29 14.5C29 6.49187 22.5081 0 14.5 0C6.49187 0 0 6.49187 0 14.5C0 22.5081 6.49187 29 14.5 29Z" fill="#1C1C1E"/>
<path fill-rule="evenodd" clip-rule="evenodd" d="M190.5 385C196.851 385 202 379.851 202 373.5C202 367.149 196.851 362 190.5 362C184.149 362 179 367.149 179 373.5C179 379.851 184.149 385 190.5 385ZM190.5 388C198.508 388 205 381.508 205 373.5C205 365.492 198.508 359 190.5 359C182.492 359 176 365.492 176 373.5C176 381.508 182.492 388 190.5 388Z" fill="#1C1C1E"/>
<path fill-rule="evenodd" clip-rule="evenodd" d="M167 16.5H29V13.5H167C181.083 13.5 192.5 24.9167 192.5 39V361.5H189.5V39C189.5 26.5736 179.426 16.5 167 16.5Z" fill="#1C1C1E"/>
</svg>
