<svg width="498" height="286" viewBox="0 0 498 286" fill="none" xmlns="http://www.w3.org/2000/svg">
<circle cx="461.138" cy="249.138" r="36.1385" fill="#6CFF5F"/>
<path d="M469.55 253.811C468.721 253.812 467.916 254.088 467.261 254.595C466.605 255.102 466.137 255.813 465.928 256.615H454.596C453.605 256.615 452.654 256.221 451.953 255.52C451.252 254.819 450.858 253.868 450.858 252.877C450.858 251.885 451.252 250.934 451.953 250.233C452.654 249.532 453.605 249.138 454.596 249.138H465.811C467.051 249.138 468.239 248.646 469.116 247.769C469.992 246.893 470.485 245.704 470.485 244.465C470.485 243.226 469.992 242.037 469.116 241.161C468.239 240.284 467.051 239.792 465.811 239.792H454.596C454.348 239.792 454.11 239.89 453.935 240.066C453.76 240.241 453.661 240.479 453.661 240.727C453.661 240.974 453.76 241.212 453.935 241.387C454.11 241.563 454.348 241.661 454.596 241.661H465.811C466.555 241.661 467.268 241.957 467.794 242.482C468.32 243.008 468.615 243.721 468.615 244.465C468.615 245.209 468.32 245.922 467.794 246.448C467.268 246.974 466.555 247.269 465.811 247.269H454.596C453.109 247.269 451.683 247.86 450.631 248.911C449.579 249.963 448.988 251.389 448.988 252.877C448.988 254.364 449.579 255.79 450.631 256.842C451.683 257.893 453.109 258.484 454.596 258.484H465.928C466.103 259.161 466.464 259.776 466.971 260.258C467.477 260.74 468.108 261.07 468.793 261.211C469.478 261.352 470.189 261.299 470.844 261.056C471.5 260.814 472.075 260.392 472.503 259.84C472.931 259.287 473.196 258.626 473.267 257.93C473.338 257.234 473.213 256.533 472.905 255.905C472.598 255.277 472.12 254.748 471.527 254.378C470.934 254.008 470.249 253.812 469.55 253.811ZM469.55 259.419C469.18 259.419 468.819 259.309 468.511 259.104C468.204 258.898 467.964 258.607 467.823 258.265C467.682 257.923 467.645 257.548 467.717 257.185C467.789 256.822 467.967 256.489 468.228 256.228C468.49 255.967 468.823 255.788 469.185 255.716C469.548 255.644 469.924 255.681 470.265 255.823C470.607 255.964 470.899 256.204 471.104 256.511C471.31 256.819 471.419 257.18 471.419 257.55C471.419 258.045 471.222 258.521 470.872 258.871C470.521 259.222 470.046 259.419 469.55 259.419Z" fill="black"/>
<path fill-rule="evenodd" clip-rule="evenodd" d="M7 11.9808V8H9V11.9808H7ZM7 27.9038V19.9423H9V27.9038H7ZM7 43.8269V35.8654H9V43.8269H7ZM7 59.75V51.7885H9V59.75H7ZM7 75.6731V67.7115H9V75.6731H7ZM7 91.5962V83.6346H9V91.5962H7ZM7 107.519V99.5577H9V107.519H7ZM7 123.442V115.481H9V123.442H7ZM7 139.365V131.404H9V139.365H7ZM7 155.288V147.327H9V155.288H7ZM7 171.212V163.25H9V171.212H7ZM7 187.135V179.173H9V187.135H7ZM7 203.058V195.096H9V203.058H7ZM7 215V211.019H9V215C9 216.506 9.09785 217.989 9.28743 219.442L7.30423 219.701C7.10349 218.162 7 216.593 7 215ZM14.4381 236.917C12.5347 234.44 10.946 231.708 9.73209 228.781L11.5795 228.015C12.7256 230.778 14.2258 233.358 16.0239 235.698L14.4381 236.917ZM29.2194 248.268C26.2921 247.054 23.5601 245.465 21.0832 243.562L22.3019 241.976C24.6418 243.774 27.2219 245.274 29.9855 246.42L29.2194 248.268ZM405.343 242.929L411.707 249.293C412.098 249.683 412.098 250.317 411.707 250.707L405.343 257.071C404.953 257.462 404.319 257.462 403.929 257.071C403.538 256.681 403.538 256.047 403.929 255.657L408.586 251H407V249H408.586L403.929 244.343C403.538 243.953 403.538 243.319 403.929 242.929C404.319 242.538 404.953 242.538 405.343 242.929ZM43 251C41.4073 251 39.8382 250.897 38.2993 250.696L38.558 248.713C40.0114 248.902 41.494 249 43 249H47V251H43ZM63 251H55V249H63V251ZM79 251H71V249H79V251ZM95 251H87V249H95V251ZM111 251H103V249H111V251ZM127 251H119V249H127V251ZM143 251H135V249H143V251ZM159 251H151V249H159V251ZM175 251H167V249H175V251ZM191 251H183V249H191V251ZM207 251H199V249H207V251ZM223 251H215V249H223V251ZM239 251H231V249H239V251ZM255 251H247V249H255V251ZM271 251H263V249H271V251ZM287 251H279V249H287V251ZM303 251H295V249H303V251ZM319 251H311V249H319V251ZM335 251H327V249H335V251ZM351 251H343V249H351V251ZM367 251H359V249H367V251ZM383 251H375V249H383V251ZM399 251H391V249H399V251Z" fill="#1C1C1E"/>
<circle cx="8" cy="8" r="8" fill="#1C1C1E"/>
</svg>
