<svg width="24" height="24" viewBox="0 0 24 24" fill="none" xmlns="http://www.w3.org/2000/svg">
<path d="M23 8.17535C23.0003 7.77023 22.9063 7.37068 22.7253 7.00891C22.5444 6.64713 22.2817 6.33325 21.9584 6.09254C21.635 5.85183 21.2601 5.69102 20.8638 5.62308C20.4675 5.55514 20.0609 5.58197 19.6768 5.70139C19.2927 5.82081 18.9418 6.0295 18.6523 6.31063C18.3629 6.59177 18.143 6.93749 18.0104 7.31995C17.8779 7.7024 17.8363 8.1109 17.889 8.51252C17.9418 8.91415 18.0874 9.29767 18.3141 9.63219L15.8585 12.6807L13.6503 7.56564C14.053 7.22404 14.3418 6.7659 14.4775 6.25332C14.6131 5.74074 14.5891 5.19852 14.4087 4.70015C14.2283 4.20177 13.9002 3.77136 13.4689 3.46724C13.0376 3.16312 12.524 3 11.9976 3C11.4712 3 10.9575 3.16312 10.5262 3.46724C10.0949 3.77136 9.76684 4.20177 9.58644 4.70015C9.40603 5.19852 9.38204 5.74074 9.51771 6.25332C9.65338 6.7659 9.94215 7.22404 10.3449 7.56564L8.1422 12.678L5.68653 9.62941C6.00198 9.16358 6.15772 8.60661 6.13004 8.04333C6.10235 7.48004 5.89275 6.94131 5.53316 6.50918C5.17357 6.07705 4.6837 5.77521 4.13814 5.64962C3.59259 5.52402 3.02126 5.58157 2.51116 5.81349C2.00106 6.04541 1.58015 6.43899 1.31253 6.93429C1.04491 7.42959 0.945244 7.99947 1.02872 8.55714C1.11219 9.11481 1.37422 9.6297 1.77491 10.0234C2.1756 10.4171 2.69299 10.668 3.24827 10.738L4.57556 18.7649C4.63262 19.11 4.80929 19.4235 5.07415 19.6496C5.33901 19.8758 5.67488 19.9999 6.02202 20H17.9787C18.3258 19.9999 18.6617 19.8758 18.9265 19.6496C19.1914 19.4235 19.368 19.11 19.4251 18.7649L20.7515 10.7417C21.3722 10.6635 21.9433 10.3596 22.3573 9.88706C22.7714 9.41449 22.9999 8.80579 23 8.17535ZM12.0003 4.48015C12.2179 4.48015 12.4306 4.54517 12.6114 4.66698C12.7923 4.78879 12.9333 4.96192 13.0166 5.16448C13.0998 5.36705 13.1216 5.58994 13.0792 5.80498C13.0367 6.02002 12.932 6.21755 12.7781 6.37258C12.6243 6.52762 12.4283 6.6332 12.2149 6.67597C12.0016 6.71875 11.7804 6.69679 11.5794 6.61289C11.3784 6.52898 11.2066 6.3869 11.0857 6.20459C10.9649 6.02229 10.9004 5.80796 10.9004 5.58871C10.9004 5.2947 11.0163 5.01274 11.2225 4.80484C11.4288 4.59694 11.7086 4.48015 12.0003 4.48015ZM2.46729 8.17535C2.46729 7.9561 2.5318 7.74177 2.65267 7.55947C2.77354 7.37717 2.94533 7.23508 3.14632 7.15118C3.34731 7.06727 3.56848 7.04532 3.78185 7.08809C3.99522 7.13087 4.19122 7.23645 4.34505 7.39148C4.49889 7.54652 4.60365 7.74404 4.64609 7.95908C4.68853 8.17412 4.66675 8.39702 4.5835 8.59958C4.50024 8.80214 4.35926 8.97528 4.17837 9.09709C3.99748 9.2189 3.78481 9.28391 3.56726 9.28391C3.27553 9.28391 2.99575 9.16712 2.78947 8.95922C2.58318 8.75133 2.46729 8.46936 2.46729 8.17535ZM17.9787 18.5219H6.02202L4.74606 10.81L7.76455 14.5496C7.83291 14.6356 7.91952 14.7052 8.01801 14.7531C8.1165 14.8011 8.2244 14.8262 8.33378 14.8267C8.36689 14.8269 8.39997 14.8247 8.43278 14.8202C8.55771 14.8031 8.67614 14.7538 8.77666 14.6771C8.87717 14.6004 8.95637 14.4989 9.00659 14.3824L11.6923 8.15595C11.8969 8.1818 12.1038 8.1818 12.3083 8.15595L14.9941 14.3824C15.0443 14.4989 15.1235 14.6004 15.224 14.6771C15.3245 14.7538 15.443 14.8031 15.5679 14.8202C15.6007 14.8247 15.6338 14.8269 15.6669 14.8267C15.7763 14.8262 15.8842 14.8011 15.9827 14.7531C16.0812 14.7052 16.1678 14.6356 16.2361 14.5496L19.2546 10.8063L17.9787 18.5219ZM20.4334 9.28391C20.2159 9.28391 20.0032 9.2189 19.8223 9.09709C19.6414 8.97528 19.5004 8.80214 19.4172 8.59958C19.3339 8.39702 19.3121 8.17412 19.3546 7.95908C19.397 7.74404 19.5018 7.54652 19.6556 7.39148C19.8094 7.23645 20.0054 7.13087 20.2188 7.08809C20.4322 7.04532 20.6534 7.06727 20.8543 7.15118C21.0553 7.23508 21.2271 7.37717 21.348 7.55947C21.4689 7.74177 21.5334 7.9561 21.5334 8.17535C21.5334 8.46936 21.4175 8.75133 21.2112 8.95922C21.0049 9.16712 20.7251 9.28391 20.4334 9.28391Z" fill="black"/>
</svg>
