<svg width="24" height="24" viewBox="0 0 24 24" fill="none" xmlns="http://www.w3.org/2000/svg">
<path d="M10.3744 13.8337C10.3059 13.7309 10.2131 13.6465 10.1041 13.5882C9.99522 13.5298 9.87356 13.4993 9.74999 13.4993C9.62641 13.4993 9.50475 13.5298 9.39582 13.5882C9.2869 13.6465 9.19407 13.7309 9.12561 13.8337L7.17092 16.7672L6.25592 15.3441C6.18802 15.2384 6.09466 15.1515 5.98442 15.0913C5.87418 15.0311 5.75059 14.9995 5.62499 14.9995C5.49938 14.9995 5.37579 15.0311 5.26555 15.0913C5.15531 15.1515 5.06196 15.2384 4.99405 15.3441L1.61905 20.5941C1.54611 20.7074 1.50505 20.8382 1.50018 20.9729C1.49532 21.1076 1.52682 21.241 1.59138 21.3593C1.65593 21.4776 1.75117 21.5763 1.86706 21.6451C1.98296 21.7138 2.11524 21.7501 2.24999 21.75H14.25C14.3858 21.7501 14.5191 21.7133 14.6356 21.6435C14.7522 21.5738 14.8476 21.4737 14.9117 21.354C14.9758 21.2343 15.0062 21.0994 14.9996 20.9637C14.993 20.8281 14.9497 20.6967 14.8744 20.5837L10.3744 13.8337ZM3.62342 20.25L5.62499 17.1366L6.5278 18.5428C6.59513 18.6476 6.68752 18.734 6.79662 18.7942C6.90571 18.8544 7.02808 18.8864 7.15267 18.8874C7.27725 18.8885 7.40013 18.8584 7.5102 18.8001C7.62027 18.7417 7.71406 18.6568 7.78311 18.5531L9.75186 15.6028L12.8484 20.25H3.62342ZM20.0297 7.71937L14.7797 2.46938C14.6391 2.32899 14.4486 2.25009 14.25 2.25H5.24999C4.85216 2.25 4.47063 2.40804 4.18933 2.68934C3.90802 2.97064 3.74999 3.35218 3.74999 3.75V12C3.74999 12.1989 3.829 12.3897 3.96966 12.5303C4.11031 12.671 4.30107 12.75 4.49999 12.75C4.6989 12.75 4.88966 12.671 5.03032 12.5303C5.17097 12.3897 5.24999 12.1989 5.24999 12V3.75H13.5V8.25C13.5 8.44891 13.579 8.63968 13.7197 8.78033C13.8603 8.92098 14.0511 9 14.25 9H18.75V20.25H18C17.8011 20.25 17.6103 20.329 17.4697 20.4697C17.329 20.6103 17.25 20.8011 17.25 21C17.25 21.1989 17.329 21.3897 17.4697 21.5303C17.6103 21.671 17.8011 21.75 18 21.75H18.75C19.1478 21.75 19.5293 21.592 19.8106 21.3107C20.092 21.0294 20.25 20.6478 20.25 20.25V8.25C20.2501 8.15148 20.2307 8.05391 20.1931 7.96286C20.1554 7.87182 20.1002 7.78908 20.0306 7.71937H20.0297ZM15 4.81031L17.6897 7.5H15V4.81031Z" fill="black"/>
</svg>
