<svg width="24" height="24" viewBox="0 0 24 24" fill="none" xmlns="http://www.w3.org/2000/svg">
<path d="M20.1225 3.87778C19.6064 3.36019 18.919 3.04884 18.1896 3.00221C17.4601 2.95557 16.7387 3.17686 16.1609 3.62451C15.5831 4.07216 15.1885 4.71537 15.0514 5.43333C14.9143 6.1513 15.044 6.89463 15.4162 7.52371L7.52342 15.4165C6.9501 15.0795 6.28117 14.9421 5.62142 15.0259C4.96166 15.1097 4.34833 15.41 3.87748 15.8796C3.48086 16.2765 3.20347 16.7766 3.07682 17.3232C2.95017 17.8698 2.97934 18.4409 3.161 18.9717C3.34266 19.5026 3.66955 19.9718 4.10453 20.3262C4.5395 20.6806 5.06514 20.9059 5.62174 20.9765C6.17834 21.0471 6.74359 20.9603 7.25329 20.7258C7.763 20.4913 8.19672 20.1185 8.50521 19.6499C8.8137 19.1812 8.98459 18.6355 8.99847 18.0746C9.01235 17.5137 8.86866 16.9602 8.58373 16.4768L16.4765 8.58402C17.1056 8.95623 17.849 9.08595 18.5669 8.94883C19.2849 8.81172 19.9281 8.41719 20.3757 7.83936C20.8234 7.26153 21.0447 6.54014 20.998 5.81069C20.9514 5.08123 20.6401 4.3939 20.1225 3.87778ZM7.06029 19.0653C6.77883 19.3467 6.39709 19.5049 5.99904 19.5049C5.601 19.5049 5.21925 19.3467 4.93779 19.0653C4.65633 18.7838 4.49821 18.4021 4.49821 18.004C4.49821 17.606 4.65633 17.2242 4.93779 16.9428C5.07709 16.8034 5.24246 16.6929 5.42447 16.6175C5.60648 16.5421 5.80156 16.5033 5.99857 16.5033C6.19559 16.5033 6.39067 16.5421 6.57268 16.6175C6.75469 16.6929 6.92006 16.8034 7.05936 16.9428C7.34029 17.2239 7.49817 17.605 7.49835 18.0024C7.49852 18.3998 7.34097 18.7811 7.06029 19.0625V19.0653ZM19.0603 7.06528C18.8505 7.27502 18.5832 7.41785 18.2923 7.4757C18.0013 7.53355 17.6997 7.50382 17.4257 7.39028C17.1516 7.27674 16.9173 7.08448 16.7525 6.83781C16.5877 6.59115 16.4998 6.30115 16.4998 6.00449C16.4998 5.70784 16.5877 5.41784 16.7525 5.17117C16.9173 4.92451 17.1516 4.73225 17.4257 4.61871C17.6997 4.50517 18.0013 4.47544 18.2923 4.53329C18.5832 4.59114 18.8505 4.73397 19.0603 4.94371C19.3402 5.22455 19.4975 5.60479 19.4979 6.00129C19.4982 6.3978 19.3416 6.77832 19.0622 7.05965L19.0603 7.06528Z" fill="black"/>
</svg>
