<svg width="49" height="36" viewBox="0 0 49 36" fill="none" xmlns="http://www.w3.org/2000/svg">
<path d="M24.5999 35.7999C18.7866 35.7999 14.1066 35.2933 10.5599 34.2799C7.01324 33.2399 4.42657 31.7199 2.7999 29.7199C1.1999 27.6933 0.399902 25.1866 0.399902 22.1999C0.399902 19.2133 1.1999 16.7199 2.7999 14.7199C4.42657 12.6933 7.01324 11.1733 10.5599 10.1599C14.1066 9.11992 18.7866 8.59992 24.5999 8.59992C30.4132 8.59992 35.0932 9.11992 38.6399 10.1599C42.1866 11.1733 44.7599 12.6933 46.3599 14.7199C47.9866 16.7199 48.7999 19.2133 48.7999 22.1999C48.7999 25.1866 47.9866 27.6933 46.3599 29.7199C44.7599 31.7199 42.1866 33.2399 38.6399 34.2799C35.0932 35.2933 30.4132 35.7999 24.5999 35.7999ZM24.5999 28.1999C27.3466 28.1999 29.7199 28.0399 31.7199 27.7199C33.7199 27.3733 35.2666 26.7733 36.3599 25.9199C37.4532 25.0399 37.9999 23.7999 37.9999 22.1999C37.9999 20.5999 37.4532 19.3733 36.3599 18.5199C35.2666 17.6399 33.7199 17.0399 31.7199 16.7199C29.7199 16.3733 27.3466 16.1999 24.5999 16.1999C21.8532 16.1999 19.4399 16.3733 17.3599 16.7199C15.3066 17.0399 13.6932 17.6399 12.5199 18.5199C11.3732 19.3733 10.7999 20.5999 10.7999 22.1999C10.7999 23.7999 11.3732 25.0399 12.5199 25.9199C13.6932 26.7733 15.3066 27.3733 17.3599 27.7199C19.4399 28.0399 21.8532 28.1999 24.5999 28.1999ZM19.1199 6.91992L27.1999 0.919922H39.9999L28.7599 6.91992H19.1199Z" fill="#6D3FD2"/>
</svg>
