<svg width="43" height="198" viewBox="0 0 43 198" fill="none" xmlns="http://www.w3.org/2000/svg">
<path fill-rule="evenodd" clip-rule="evenodd" d="M36.3431 0.292893L42.7071 6.65685C43.0976 7.04738 43.0976 7.68054 42.7071 8.07107L36.3431 14.435C35.9526 14.8256 35.3195 14.8256 34.9289 14.435C34.5384 14.0445 34.5384 13.4113 34.9289 13.0208L39.5858 8.36396L19 8.36396V6.36396L39.5858 6.36396L34.9289 1.70711C34.5384 1.31658 34.5384 0.683418 34.9289 0.292893C35.3195 -0.0976311 35.9526 -0.0976311 36.3431 0.292893Z" fill="#1C1C1E"/>
<path fill-rule="evenodd" clip-rule="evenodd" d="M36.3431 183.293L42.7071 189.657C43.0976 190.047 43.0976 190.681 42.7071 191.071L36.3431 197.435C35.9526 197.826 35.3195 197.826 34.9289 197.435C34.5384 197.045 34.5384 196.411 34.9289 196.021L39.5858 191.364L19 191.364V189.364L39.5858 189.364L34.9289 184.707C34.5384 184.317 34.5384 183.683 34.9289 183.293C35.3195 182.902 35.9526 182.902 36.3431 183.293Z" fill="#1C1C1E"/>
<path fill-rule="evenodd" clip-rule="evenodd" d="M19 190.364L19 7.36401H21L21 190.364H19Z" fill="#1C1C1E"/>
<path fill-rule="evenodd" clip-rule="evenodd" d="M19 98.364H0V96.364H19V98.364Z" fill="#1C1C1E"/>
</svg>
