<svg width="24" height="24" viewBox="0 0 24 24" fill="none" xmlns="http://www.w3.org/2000/svg">
<path d="M20.5 4H3.50004C3.09016 4 2.69707 4.16282 2.40724 4.45265C2.11741 4.74248 1.95459 5.13557 1.95459 5.54545V19.4545C1.95459 19.8644 2.11741 20.2575 2.40724 20.5473C2.69707 20.8372 3.09016 21 3.50004 21H20.5C20.9099 21 21.303 20.8372 21.5928 20.5473C21.8827 20.2575 22.0455 19.8644 22.0455 19.4545V5.54545C22.0455 5.13557 21.8827 4.74248 21.5928 4.45265C21.303 4.16282 20.9099 4 20.5 4ZM3.50004 14.8182H5.0455C5.25044 14.8182 5.44698 14.7368 5.5919 14.5919C5.73681 14.4469 5.81823 14.2504 5.81823 14.0455C5.81823 13.8405 5.73681 13.644 5.5919 13.4991C5.44698 13.3541 5.25044 13.2727 5.0455 13.2727H3.50004V11.7273H5.0455C5.25044 11.7273 5.44698 11.6459 5.5919 11.5009C5.73681 11.356 5.81823 11.1595 5.81823 10.9545C5.81823 10.7496 5.73681 10.5531 5.5919 10.4081C5.44698 10.2632 5.25044 10.1818 5.0455 10.1818H3.50004V8.63636H5.0455C5.25044 8.63636 5.44698 8.55495 5.5919 8.41004C5.73681 8.26512 5.81823 8.06858 5.81823 7.86364C5.81823 7.6587 5.73681 7.46215 5.5919 7.31724C5.44698 7.17232 5.25044 7.09091 5.0455 7.09091H3.50004V5.54545H7.36368V19.4545H3.50004V14.8182ZM20.5 19.4545H8.90914V5.54545H20.5V19.4545Z" fill="black"/>
</svg>
