<svg width="24" height="24" viewBox="0 0 24 24" fill="none" xmlns="http://www.w3.org/2000/svg">
<path d="M20.5317 13.0394C19.9873 10.8747 18.6792 8.99218 16.859 7.75384H22.2668C22.4612 7.75384 22.6477 7.67487 22.7852 7.53429C22.9227 7.39371 23 7.20305 23 7.00425C23 6.80544 22.9227 6.61478 22.7852 6.47421C22.6477 6.33363 22.4612 6.25466 22.2668 6.25466H14.8426C14.6811 5.6097 14.3142 5.03804 13.7997 4.62981C13.2853 4.22158 12.6525 4 12.0013 4C11.35 4 10.7173 4.22158 10.2028 4.62981C9.68839 5.03804 9.32147 5.6097 9.15994 6.25466H1.7358C1.54133 6.25466 1.35483 6.33363 1.21732 6.47421C1.07981 6.61478 1.00255 6.80544 1.00255 7.00425C1.00255 7.20305 1.07981 7.39371 1.21732 7.53429C1.35483 7.67487 1.54133 7.75384 1.7358 7.75384H7.14351C5.32336 8.99218 4.0153 10.8747 3.47085 13.0394C2.76681 13.1542 2.1278 13.5273 1.67329 14.0888C1.21879 14.6504 0.979907 15.3619 1.00132 16.0904C1.02274 16.8189 1.30299 17.5145 1.78966 18.0471C2.27634 18.5797 2.93611 18.9129 3.64562 18.9843C4.35513 19.0557 5.0658 18.8604 5.64473 18.4351C6.22366 18.0097 6.63122 17.3834 6.79119 16.6731C6.95117 15.9629 6.85261 15.2174 6.51395 14.576C6.17529 13.9347 5.61971 13.4414 4.95109 13.1884C5.26591 12.0787 5.82559 11.0577 6.58704 10.2039C7.34849 9.35011 8.29142 8.6863 9.34325 8.26356C9.57858 8.78231 9.95411 9.22145 10.4256 9.52919C10.897 9.83693 11.4447 10.0004 12.004 10.0004C12.5634 10.0004 13.1111 9.83693 13.5825 9.52919C14.0539 9.22145 14.4295 8.78231 14.6648 8.26356C15.7156 8.68701 16.6574 9.35113 17.4179 10.2049C18.1784 11.0586 18.7372 12.0793 19.0515 13.1884C18.3825 13.4405 17.8263 13.9331 17.4869 14.574C17.1474 15.215 17.048 15.9603 17.2071 16.6708C17.3662 17.3813 17.773 18.0081 18.3514 18.4342C18.9298 18.8603 19.6403 19.0564 20.3499 18.9859C21.0595 18.9154 21.7197 18.5831 22.207 18.0511C22.6943 17.5191 22.9754 16.8238 22.9977 16.0953C23.0199 15.3668 22.7819 14.655 22.328 14.0929C21.8742 13.5308 21.2356 13.157 20.5317 13.0413V13.0394ZM5.40204 15.9994C5.40204 16.2959 5.31603 16.5857 5.15489 16.8323C4.99375 17.0788 4.76472 17.271 4.49675 17.3844C4.22878 17.4979 3.93392 17.5276 3.64945 17.4697C3.36497 17.4119 3.10367 17.2691 2.89858 17.0594C2.69348 16.8498 2.55381 16.5826 2.49723 16.2918C2.44064 16.001 2.46968 15.6996 2.58068 15.4256C2.69168 15.1517 2.87964 14.9176 3.1208 14.7528C3.36197 14.5881 3.6455 14.5002 3.93555 14.5002C4.32448 14.5002 4.69749 14.6581 4.97252 14.9393C5.24754 15.2204 5.40204 15.6017 5.40204 15.9994ZM12.0013 8.50343C11.7112 8.50343 11.4277 8.41551 11.1865 8.25078C10.9454 8.08604 10.7574 7.8519 10.6464 7.57796C10.5354 7.30402 10.5064 7.00259 10.563 6.71177C10.6195 6.42096 10.7592 6.15383 10.9643 5.94417C11.1694 5.7345 11.4307 5.59172 11.7152 5.53387C11.9997 5.47602 12.2945 5.50571 12.5625 5.61918C12.8304 5.73265 13.0595 5.92481 13.2206 6.17135C13.3818 6.41789 13.4678 6.70774 13.4678 7.00425C13.4678 7.40186 13.3133 7.78318 13.0382 8.06433C12.7632 8.34548 12.3902 8.50343 12.0013 8.50343ZM20.067 17.4985C19.777 17.4985 19.4934 17.4106 19.2523 17.2459C19.0111 17.0812 18.8231 16.847 18.7121 16.5731C18.6011 16.2991 18.5721 15.9977 18.6287 15.7069C18.6853 15.4161 18.8249 15.1489 19.03 14.9393C19.2351 14.7296 19.4964 14.5868 19.7809 14.529C20.0654 14.4711 20.3602 14.5008 20.6282 14.6143C20.8962 14.7278 21.1252 14.9199 21.2864 15.1665C21.4475 15.413 21.5335 15.7028 21.5335 15.9994C21.5335 16.397 21.379 16.7783 21.104 17.0594C20.829 17.3406 20.4559 17.4985 20.067 17.4985Z" fill="black"/>
</svg>
