<svg width="24" height="24" viewBox="0 0 24 24" fill="none" xmlns="http://www.w3.org/2000/svg">
<path d="M16.5787 7.42132C16.3174 6.01434 15.6768 4.70546 14.726 3.63599C13.7752 2.56651 12.5503 1.77709 11.1836 1.35296C9.81684 0.92882 8.36022 0.886084 6.97098 1.22936C5.58174 1.57264 4.31266 2.28889 3.30078 3.30078C2.28889 4.31266 1.57264 5.58174 1.22936 6.97098C0.886084 8.36022 0.92882 9.81684 1.35296 11.1836C1.77709 12.5503 2.56651 13.7752 3.63599 14.726C4.70546 15.6768 6.01434 16.3174 7.42132 16.5787C7.68256 17.9857 8.32317 19.2945 9.27399 20.364C10.2248 21.4335 11.4497 22.2229 12.8164 22.647C14.1832 23.0712 15.6398 23.1139 17.029 22.7706C18.4183 22.4274 19.6873 21.7111 20.6992 20.6992C21.7111 19.6873 22.4274 18.4183 22.7706 17.029C23.1139 15.6398 23.0712 14.1832 22.647 12.8164C22.2229 11.4497 21.4335 10.2248 20.364 9.27399C19.2945 8.32317 17.9857 7.68256 16.5787 7.42132ZM21.4264 15.1421C21.4264 15.2914 21.4195 15.4367 21.4087 15.585L16.4991 10.6754C16.6267 10.1439 16.6984 9.6006 16.7132 9.05425C18.0618 9.40436 19.2561 10.192 20.109 11.2937C20.9619 12.3953 21.4253 13.7489 21.4264 15.1421ZM20.1038 18.9922L14.9369 13.8264C15.3187 13.3598 15.6458 12.8512 15.912 12.3103L21.0042 17.4005C20.7833 17.9722 20.4799 18.5084 20.1038 18.9922ZM17.4005 21.0042L12.3083 15.912C12.8492 15.6458 13.3579 15.3187 13.8244 14.9369L18.9903 20.1038C18.5071 20.4797 17.9715 20.7831 17.4005 21.0042ZM3.89623 5.00776L9.06308 10.1736C8.68132 10.6402 8.35418 11.1488 8.08804 11.6897L2.99581 6.59945C3.21674 6.02782 3.52009 5.49158 3.89623 5.00776ZM6.59945 2.99581L11.6917 8.08804C11.1508 8.35418 10.6421 8.68132 10.1756 9.06308L5.00776 3.89623C5.49158 3.52009 6.02782 3.21674 6.59945 2.99581ZM15.1421 8.85786C15.1403 10.524 14.4776 12.1214 13.2995 13.2995C12.1214 14.4776 10.524 15.1403 8.85786 15.1421C8.85968 13.476 9.52236 11.8786 10.7005 10.7005C11.8786 9.52236 13.476 8.85968 15.1421 8.85786ZM14.9458 7.28679C14.4002 7.30008 13.8576 7.37018 13.3266 7.49594L8.41698 2.58635C8.56329 2.58046 8.70861 2.57359 8.85786 2.57359C10.2518 2.57502 11.6058 3.03906 12.7076 3.89294C13.8094 4.74681 14.5966 5.94223 14.9458 7.2917V7.28679ZM2.57359 8.85786C2.57359 8.70861 2.58046 8.56329 2.59126 8.41502L7.50085 13.3246C7.37495 13.8562 7.30485 14.3996 7.2917 14.9458C5.94223 14.5966 4.74681 13.8094 3.89294 12.7076C3.03906 11.6058 2.57502 10.2518 2.57359 8.85786ZM9.05425 16.7132C9.59977 16.6999 10.1424 16.6298 10.6734 16.5041L15.583 21.4136C15.4367 21.4244 15.2884 21.4313 15.1402 21.4313C13.7466 21.4295 12.393 20.9652 11.2916 20.1114C10.1903 19.2575 9.40335 18.0624 9.05425 16.7132Z" fill="black"/>
</svg>
