<svg width="24" height="24" viewBox="0 0 24 24" fill="none" xmlns="http://www.w3.org/2000/svg">
<g clip-path="url(#clip0_690_110)">
<path d="M14.25 7.49965C14.25 7.30074 14.329 7.10998 14.4697 6.96932C14.6103 6.82867 14.8011 6.74965 15 6.74965H23.25C23.4489 6.74965 23.6397 6.82867 23.7803 6.96932C23.921 7.10998 24 7.30074 24 7.49965C24 7.69857 23.921 7.88933 23.7803 8.02998C23.6397 8.17064 23.4489 8.24965 23.25 8.24965H15C14.8011 8.24965 14.6103 8.17064 14.4697 8.02998C14.329 7.88933 14.25 7.69857 14.25 7.49965ZM23.25 11.2497H15C14.8011 11.2497 14.6103 11.3287 14.4697 11.4693C14.329 11.61 14.25 11.8007 14.25 11.9997C14.25 12.1986 14.329 12.3893 14.4697 12.53C14.6103 12.6706 14.8011 12.7497 15 12.7497H23.25C23.4489 12.7497 23.6397 12.6706 23.7803 12.53C23.921 12.3893 24 12.1986 24 11.9997C24 11.8007 23.921 11.61 23.7803 11.4693C23.6397 11.3287 23.4489 11.2497 23.25 11.2497ZM23.25 15.7497H17.25C17.0511 15.7497 16.8603 15.8287 16.7197 15.9693C16.579 16.11 16.5 16.3007 16.5 16.4997C16.5 16.6986 16.579 16.8893 16.7197 17.03C16.8603 17.1706 17.0511 17.2497 17.25 17.2497H23.25C23.4489 17.2497 23.6397 17.1706 23.7803 17.03C23.921 16.8893 24 16.6986 24 16.4997C24 16.3007 23.921 16.11 23.7803 15.9693C23.6397 15.8287 23.4489 15.7497 23.25 15.7497ZM14.2266 17.8122C14.2511 17.9076 14.2566 18.0069 14.2427 18.1044C14.2288 18.2019 14.1959 18.2958 14.1457 18.3806C14.0956 18.4654 14.0292 18.5395 13.9504 18.5986C13.8716 18.6578 13.782 18.7008 13.6866 18.7253C13.6254 18.7418 13.5624 18.75 13.4991 18.7497C13.3327 18.7497 13.1711 18.6945 13.0395 18.5927C12.908 18.4909 12.8141 18.3482 12.7725 18.1872C12.195 15.9428 9.92812 14.2497 7.49906 14.2497C5.06999 14.2497 2.80312 15.9418 2.22562 18.1872C2.17589 18.3799 2.05165 18.5449 1.88023 18.646C1.70881 18.7471 1.50425 18.7759 1.31156 18.7262C1.11886 18.6765 0.95381 18.5522 0.852716 18.3808C0.751622 18.2094 0.722765 18.0049 0.772493 17.8122C1.29656 15.7768 2.81999 14.1287 4.75312 13.3122C4.00877 12.7388 3.46254 11.9469 3.19104 11.0475C2.91954 10.148 2.93637 9.18611 3.23919 8.29671C3.54201 7.4073 4.11562 6.63498 4.87958 6.08806C5.64353 5.54115 6.55951 5.24707 7.49906 5.24707C8.4386 5.24707 9.35458 5.54115 10.1185 6.08806C10.8825 6.63498 11.4561 7.4073 11.7589 8.29671C12.0617 9.18611 12.0786 10.148 11.8071 11.0475C11.5356 11.9469 10.9893 12.7388 10.245 13.3122C12.1791 14.1287 13.7025 15.7768 14.2266 17.8122ZM7.49999 12.7497C8.09334 12.7497 8.67336 12.5737 9.1667 12.2441C9.66005 11.9144 10.0446 11.4459 10.2716 10.8977C10.4987 10.3495 10.5581 9.74633 10.4424 9.16438C10.3266 8.58244 10.0409 8.04789 9.62131 7.62833C9.20176 7.20878 8.66721 6.92305 8.08526 6.8073C7.50332 6.69154 6.90012 6.75095 6.35194 6.97802C5.80376 7.20508 5.33523 7.5896 5.00558 8.08294C4.67594 8.57629 4.49999 9.15631 4.49999 9.74965C4.49999 10.5453 4.81606 11.3084 5.37867 11.871C5.94128 12.4336 6.70434 12.7497 7.49999 12.7497Z" fill="black"/>
</g>
<defs>
<clipPath id="clip0_690_110">
<rect width="24" height="24" fill="white"/>
</clipPath>
</defs>
</svg>
